<?xml version="1.0" encoding="UTF-8"?>
<svg width="724.46" height="724.46" viewBox="0 0 724.4624 771.08325" xmlns="http://www.w3.org/2000/svg">
 <g transform="translate(14.815 -53.91)" stroke="#000" stroke-width=".95053">
  <path d="m569.3 142.22-18.179 2.7625-7.9013 7.5151-30.417 34.368 3.5348 2.3763 2.7625-0.80201 3.1783 2.7625h3.9506l-1.1882 1.1882 1.9605 10.278 2.7922 3.9506 1.9605 5.9408 5.2873 6.1487 2.2575 10.07-1.1288 10.04h5.5844l4.4853 4.4853 0.44882 3.9143c3.1302-4.4837 5.9715-9.6032 11.561-8.677l3.7913 1.9455c6.3841 5.4128-5.6393 8.1722-10.216 11.758l5.5844 3.3566 3.3566-3.3566 10.04 2.2278h11.198l2.2278-5.5844 1.1288 6.7131-16.783 13.397-4.4556 7.8419-8.9409 23.466-6.7131 5.5844-3.3566 5.5843 1.1288 10.07-6.7131-7.8122-14.525-6.7131-8.9409-5.5844-21.238-12.297-19.011-5.5844-13.397 4.4556-17.912 16.753-10.04 10.07v7.8419l7.8122 16.753-7.8122-2.2278h-13.426l-17.882 1.0991-18.981 8.9409-8.9409 17.882 6.6834 13.426-12.297-2.2278-12.297 7.8122-11.169 14.525 3.3566 12.297 12.297 14.525 17.882 8.9409 5.5844 15.654 11.169 10.07 22.367 6.7131 17.882 12.268 16.783 21.238 6.6834 25.724 7.8419 15.654 4.4556 6.6834 11.169 6.7131 6.7131 4.4853 2.2575-3.3566v-21.238l5.5844-7.8122 8.9409-11.198 4.4556-8.9409 15.654 6.7131 41.348 63.715 7.8419 34.635 8.9409 11.198 17.882 24.565 26.823 27.951 34.635 53.645 5.5844 25.724-7.8121 62.586 17.882 6.7131 12.594-4.9903 14.228-23.318-2.7625-12.624 2.3763-13.456-1.5743-11.05 0.80199-6.327-0.41583-12.268-3.9506-7.4854-7.5152-4.3665-5.1388-16.991-5.5249-20.941-16.605-37.932-22.902-22.129-7.9013-10.278-6.7131-19.367-2.7922-23.318-12.238-114.18 6.3269-28.872 4.3368-18.179 22.13-45.417 5.9408-26.496 6.7131-25.278 0.38616-5.525 1.1882-40.724-5.5249-29.645-13.842-15.001-15.803-0.38615-13.04-20.941-1.5743-5.1388 3.1486-0.802 5.9408 0.802 41.602-27.377-6.7131 16.991 8.2874-10.278 2.7625 10.278-1.9605-7.9013 3.5644 1.5743 5.525-1.5743 7.5151 1.9902 10.664 1.5743-1.1882-7.129 0.38616-5.1388-4.3369-5.1091-3.5644-13.04-7.9012-4.3665-13.04 11.852-44.701 27.172-4.0302-9.3007-20.941-26.852-25.278-13.04zm-34.635 229.61-10.842 21.12-3.9209 1.4852-19.634 7.8716-16.278 2.7031-31.991-8.4359-15.684-7.8716 34.991-14.169 7.2478 2.7031 5.4358-2.7031 50.675-2.7031z"/>
  <path d="m125.54 138.97 18.179 2.7625 7.9013 7.5151 30.417 34.368-3.5348 2.3763-2.7625-0.802-3.1783 2.7625h-3.9506l1.1882 1.1882-1.9605 10.278-2.7922 3.9506-1.9605 5.9408-5.2873 6.1487-2.2575 10.07 1.1288 10.04h-5.5844l-4.4853 4.4853-0.44882 3.9144c-3.1302-4.4837-5.9715-9.6032-11.561-8.677l-3.7913 1.9455c-6.3841 5.4128 5.6393 8.1722 10.216 11.758l-5.5844 3.3566-3.3566-3.3566-10.04 2.2278h-11.198l-2.2278-5.5844-1.1288 6.7131 16.783 13.397 4.4556 7.8419 8.9409 23.466 6.7131 5.5844 3.3566 5.5844-1.1288 10.07 6.7131-7.8122 14.525-6.7131 8.9409-5.5844 21.238-12.297 19.011-5.5844 13.397 4.4556 17.912 16.753 10.04 10.07v7.8419l-7.8122 16.753 7.8122-2.2278h13.426l17.882 1.099 18.981 8.9409 8.9409 17.882-6.6834 13.426 12.297-2.2278 12.297 7.8122 11.169 14.525-3.3566 12.297-12.297 14.525-17.882 8.9409-5.5844 15.654-11.169 10.07-22.367 6.7131-17.882 12.268-16.783 21.238-6.6834 25.724-7.8419 15.654-4.4556 6.6834-11.169 6.7131-6.7131 4.4853-2.2575-3.3566v-21.238l-5.5844-7.8122-8.9409-11.198-4.4556-8.9409-15.654 6.7131-41.348 63.715-7.8419 34.635-8.9409 11.198-17.882 24.565-26.823 27.951-34.635 53.645-5.5844 25.724 7.8122 62.586-17.882 6.7131-12.594-4.9903-14.228-23.318 2.7625-12.624-2.3763-13.456 1.5743-11.05-0.802-6.327 0.41585-12.268 3.9506-7.4854 7.5151-4.3665 5.1388-16.991 5.525-20.941 16.605-37.932 22.902-22.129 7.9013-10.278 6.7131-19.367 2.7922-23.318 12.238-114.18-6.327-28.872-4.3368-18.179-22.129-45.417-5.9408-26.496-6.7131-25.278-0.38615-5.525-1.1882-40.724 5.5249-29.645 13.842-15.001 15.803-0.38615 13.04-20.941 1.5743-5.1388-3.1486-0.80201-5.9408 0.80201-41.602-27.377 6.7131 16.991-8.2874-10.278-2.7625 10.278 1.9605-7.9013-3.5645 1.5743-5.525-1.5743-7.5151 1.9902-10.664 1.5743 1.1882-7.129-0.38615-5.1388 4.3368-5.1091 3.5645-13.04 7.9013-4.3665 13.04 11.852 44.701 27.172 4.0302-9.3007 20.941-26.852 25.278-13.04zm34.635 229.61 10.842 21.12 3.9209 1.4852 19.634 7.8716 16.278 2.7031 31.991-8.4359 15.684-7.8716-34.991-14.169-7.2478 2.7031-5.4358-2.7031-50.675-2.7031z"/>
 </g>
</svg>
